<?xml version="1.0" encoding="utf-8"?>
<!-- Generator: Adobe Illustrator 27.5.0, SVG Export Plug-In . SVG Version: 6.00 Build 0)  -->
<svg version="1.1" xmlns="http://www.w3.org/2000/svg" xmlns:xlink="http://www.w3.org/1999/xlink" x="0px" y="0px"
	 viewBox="0 0 500 500" style="enable-background:new 0 0 500 500;" xml:space="preserve">
<g id="BACKGROUND">
	<rect style="fill:#FFFFFF;" width="500" height="500"/>
	<path style="fill:#F2D3E8;" d="M252.192,162.782c-28.275,21.796-64.586,26.548-98.975,32.743
		c-34.388,6.195-70.901,15.989-93.808,44.068c-13.063,16.012-20.496,37.474-18.978,58.648c1.518,21.175,12.367,41.665,29.299,52.806
		c21.919,14.422,50.255,11.936,74.733,3.409c24.478-8.528,47.119-22.467,71.822-30.214c33.279-10.437,68.61-9.172,103.269-10.573
		c34.66-1.402,70.729-6.112,99.682-26.504c24.353-17.154,41.551-44.212,51.997-73.298c11.375-31.677,14.137-70.887-6.624-96.569
		c-12.68-15.686-32.184-23.541-51.482-25.723c-26.798-3.031-53.965,3.791-78.594,15.467
		C309.904,118.718,287.712,135.401,252.192,162.782z"/>
</g>
<g id="OBJECTS">
	<g>
		<path style="fill:#F2D3E8;" d="M224.22,394.015c-1.979-1.566-4.883-1.88-7.124-0.722c-2.242,1.157-3.675,3.746-3.408,6.254
			c0.266,2.508,2.245,4.758,4.712,5.287c2.647,0.568,5.546-0.897,6.814-3.289C226.483,399.153,226.406,395.744,224.22,394.015z"/>
		<path style="fill:#F2D3E8;" d="M187.923,57.562c-3.058-2.42-7.547-2.905-11.011-1.115c-3.465,1.788-5.679,5.788-5.268,9.666
			c0.412,3.877,3.471,7.353,7.283,8.171c4.091,0.877,8.572-1.387,10.531-5.084C191.419,65.504,191.3,60.235,187.923,57.562z"/>
		<path style="fill:#F2D3E8;" d="M421.703,385.237c-3.058-2.42-7.547-2.905-11.011-1.115c-3.465,1.788-5.679,5.788-5.267,9.666
			c0.411,3.877,3.47,7.353,7.282,8.171c4.091,0.877,8.572-1.387,10.532-5.084C425.199,393.178,425.081,387.909,421.703,385.237z"/>
		<path style="fill:#FFFFFF;" d="M94.542,316.809c-1.978-1.565-4.883-1.879-7.124-0.722s-3.674,3.746-3.408,6.254
			c0.266,2.508,2.245,4.758,4.712,5.287c2.648,0.568,5.546-0.896,6.814-3.289C96.805,321.948,96.728,318.539,94.542,316.809z"/>
		<path style="fill:#F2D3E8;" d="M49.576,374.072c-1.719-1.36-4.241-1.632-6.188-0.628c-1.947,1.006-3.192,3.253-2.96,5.432
			c0.23,2.179,1.95,4.132,4.092,4.592c2.298,0.493,4.816-0.78,5.918-2.857C51.542,378.535,51.474,375.573,49.576,374.072z"/>
		<path style="fill:#F2D3E8;" d="M380.567,442.262c-1.718-1.359-4.241-1.631-6.189-0.627c-1.946,1.005-3.191,3.253-2.96,5.431
			c0.231,2.179,1.95,4.133,4.093,4.593c2.299,0.493,4.816-0.78,5.917-2.857C382.531,446.725,382.465,443.765,380.567,442.262z"/>
		<path style="fill:#F2D3E8;" d="M458.247,322.802c-1.718-1.359-4.241-1.631-6.189-0.626c-1.946,1.005-3.191,3.253-2.96,5.431
			c0.231,2.179,1.95,4.133,4.093,4.593c2.299,0.493,4.816-0.78,5.917-2.857C460.211,327.265,460.145,324.305,458.247,322.802z"/>
		<path style="fill:#FFFFFF;" d="M455.596,142.905c-1.718-1.359-4.241-1.631-6.189-0.627c-1.946,1.005-3.191,3.253-2.96,5.431
			c0.231,2.179,1.95,4.133,4.093,4.593c2.299,0.493,4.816-0.78,5.917-2.857C457.56,147.368,457.494,144.407,455.596,142.905z"/>
		<path style="fill:#F2D3E8;" d="M460.084,67.386c-1.718-1.36-4.241-1.632-6.188-0.628c-1.947,1.006-3.191,3.254-2.96,5.432
			c0.231,2.179,1.95,4.133,4.092,4.592c2.299,0.494,4.817-0.779,5.918-2.857C462.05,71.849,461.983,68.888,460.084,67.386z"/>
		<path style="fill:#F2D3E8;" d="M44.197,200.885c-1.719-1.36-4.241-1.632-6.188-0.627c-1.947,1.006-3.191,3.254-2.96,5.432
			c0.23,2.179,1.95,4.133,4.093,4.592c2.299,0.494,4.816-0.779,5.918-2.857C46.162,205.348,46.095,202.387,44.197,200.885z"/>
		<path style="fill:#F2D3E8;" d="M260.785,83.681c-1.718-1.36-4.241-1.632-6.188-0.628c-1.947,1.006-3.191,3.254-2.96,5.432
			c0.231,2.179,1.95,4.133,4.092,4.592c2.299,0.494,4.817-0.779,5.918-2.857C262.751,88.144,262.684,85.182,260.785,83.681z"/>
		<path style="fill:#F2D3E8;" d="M378.705,76.453c-1.718-1.36-4.241-1.632-6.188-0.627c-1.947,1.006-3.191,3.254-2.96,5.432
			c0.231,2.179,1.95,4.133,4.092,4.592c2.299,0.494,4.817-0.779,5.918-2.857C380.671,80.916,380.604,77.954,378.705,76.453z"/>
		<path style="fill:#FFFFFF;" d="M263.922,266.482c-1.719-1.359-4.241-1.631-6.189-0.627c-1.946,1.006-3.191,3.253-2.96,5.431
			c0.231,2.18,1.95,4.133,4.092,4.593c2.299,0.493,4.817-0.78,5.918-2.857C265.887,270.945,265.82,267.984,263.922,266.482z"/>
	</g>
	<g>
		<path style="fill:none;stroke:#2E2854;stroke-linecap:round;stroke-linejoin:round;stroke-miterlimit:10;" d="M192.682,379.213
			c-12.819,13.641-30.526,22.847-49.193,24.236c-12.821,0.954-29.409-0.872-37.431,11.23c-5.19,7.828-2.879,19.212,3.745,25.871
			c16.655,16.743,45.75,13.745,65.741,4.239c9.667-4.599,18.107-11.925,28.388-14.904c19.456-5.637,35.338-7.093,41.022-30.003
			C253.878,363.915,213.864,356.673,192.682,379.213z"/>
		<path style="fill:none;stroke:#2E2854;stroke-linecap:round;stroke-linejoin:round;stroke-miterlimit:10;" d="M423.956,345.526
			c-25.595,3.525-56.991,13.932-63.221,41.982c-5.143,23.16,15.5,33.05,33.824,18.976c6.801-5.224,13.733-11.134,22.209-12.444
			c13.774-2.146,28.528,10.145,41.692,3.088c15.358-8.235,13.808-32.164,2.256-43.491
			C452.945,346.017,441.072,343.169,423.956,345.526z"/>
		<path style="fill:none;stroke:#2E2854;stroke-linecap:round;stroke-linejoin:round;stroke-miterlimit:10;" d="M192.378,163.995
			c0-1.3-1.054-2.354-2.354-2.354c-1.3,0-2.354,1.054-2.354,2.354c0,1.3,1.054,2.354,2.354,2.354
			C191.324,166.348,192.378,165.295,192.378,163.995z"/>
		<path style="fill:none;stroke:#2E2854;stroke-linecap:round;stroke-linejoin:round;stroke-miterlimit:10;" d="M233.768,295.552
			c0-1.3-1.054-2.354-2.354-2.354c-1.3,0-2.354,1.054-2.354,2.354c0,1.3,1.054,2.354,2.354,2.354
			C232.715,297.906,233.768,296.852,233.768,295.552z"/>
		<path style="fill:none;stroke:#2E2854;stroke-linecap:round;stroke-linejoin:round;stroke-miterlimit:10;" d="M32.69,284.472
			c0-1.3-1.054-2.354-2.354-2.354c-1.3,0-2.354,1.054-2.354,2.354c0,1.3,1.054,2.354,2.354,2.354
			C31.636,286.826,32.69,285.772,32.69,284.472z"/>
		<path style="fill:none;stroke:#2E2854;stroke-linecap:round;stroke-linejoin:round;stroke-miterlimit:10;" d="M472.035,275.985
			c0-1.3-1.054-2.354-2.354-2.354s-2.354,1.054-2.354,2.354s1.054,2.354,2.354,2.354S472.035,277.285,472.035,275.985z"/>
		<path style="fill:none;stroke:#2E2854;stroke-linecap:round;stroke-linejoin:round;stroke-miterlimit:10;" d="M208.392,62.01
			c0-1.3-1.054-2.354-2.354-2.354s-2.354,1.054-2.354,2.354s1.054,2.354,2.354,2.354S208.392,63.31,208.392,62.01z"/>
		<path style="fill:none;stroke:#2E2854;stroke-linecap:round;stroke-linejoin:round;stroke-miterlimit:10;" d="M228.76,79.316
			c1.471,26.802,57.54,27.661,92.858-3.592c35.318-31.253,14.78-54.791-6.797-44.901c-21.577,9.89-22.566,21.758-44.522,23.736
			C248.342,56.537,227.77,61.285,228.76,79.316z"/>
		<path style="fill:none;stroke:#2E2854;stroke-linecap:round;stroke-linejoin:round;stroke-miterlimit:10;" d="M244.506,450.399
			c0-1.3-1.054-2.354-2.354-2.354c-1.3,0-2.354,1.054-2.354,2.354s1.054,2.354,2.354,2.354
			C243.453,452.753,244.506,451.699,244.506,450.399z"/>
		<path style="fill:none;stroke:#2E2854;stroke-linecap:round;stroke-linejoin:round;stroke-miterlimit:10;" d="M42.755,63.92
			c0-1.3-1.054-2.354-2.354-2.354s-2.354,1.054-2.354,2.354c0,1.3,1.054,2.354,2.354,2.354S42.755,65.22,42.755,63.92z"/>
		<path style="fill:none;stroke:#2E2854;stroke-linecap:round;stroke-linejoin:round;stroke-miterlimit:10;" d="M474.389,96.228
			c0-1.3-1.054-2.354-2.354-2.354c-1.3,0-2.354,1.054-2.354,2.354c0,1.3,1.054,2.354,2.354,2.354
			C473.335,98.581,474.389,97.528,474.389,96.228z"/>
		<path style="fill:none;stroke:#2E2854;stroke-linecap:round;stroke-linejoin:round;stroke-miterlimit:10;" d="M64.644,440.423
			c0-1.3-1.054-2.354-2.354-2.354s-2.354,1.054-2.354,2.354c0,1.3,1.054,2.354,2.354,2.354S64.644,441.723,64.644,440.423z"/>
	</g>
	<g>
		<path style="opacity:0.15;fill:#2E2854;" d="M234.517,179.732c-0.355-0.295-0.9-0.249-1.298-0.015
			c-0.398,0.233-0.682,0.616-0.955,0.988c-1.274,1.741-2.868,4.299-4.141,6.04c0.852-3.791,2.203-8.234,3.038-11.904
			c0.119-0.522,0.214-1.133-0.134-1.541c-0.383-0.447-1.133-0.384-1.599-0.023c-0.466,0.361-0.716,0.926-0.947,1.467
			c-1.368,3.193-2.8,6.456-4.169,9.65c1.062-4.133,1.957-8.292,2.546-12.418c0.141-0.988,0.101-2.281-0.836-2.628
			c-0.581-0.215-1.251,0.099-1.639,0.583c-0.387,0.484-0.555,1.102-0.713,1.701c-0.97,3.667-2.011,7.676-2.981,11.342
			c-0.077-4.335,0.017-9.154-0.387-13.594c-0.072-0.79-0.345-1.784-1.134-1.875c-0.453-0.053-0.885,0.259-1.113,0.654
			c-0.229,0.394-0.296,0.859-0.359,1.31c-0.737,5.294-1.474,10.589-2.211,15.883c-0.18-0.022-0.36-0.045-0.542-0.057
			c-0.704-2.425-1.79-4.947-3.452-7.007c-0.288-0.357-0.739-0.733-1.15-0.532c-0.357,0.176-0.401,0.659-0.395,1.057
			c0.061,3.841,0.214,7.681,0.182,11.523c-0.011,1.305-0.071,2.606-0.177,3.901c-0.71,8.629-3.501,17.006-7.809,24.409
			c-1.582,2.719-3.672,5.51-6.738,6.214c-2.264,0.519-4.672-0.241-6.595-1.544c-1.924-1.303-3.444-3.105-4.92-4.9
			c-2.632-3.201-5.209-6.455-7.792-9.705c-6.927-8.713-13.9-17.39-22.097-24.891c-2.973-2.72-6.143-5.287-9.481-7.603
			c-3.634-2.522-7.468-4.742-11.458-6.546c-4.066-1.839-8.298-3.232-12.649-4.066c0.306-2.773,0.503-5.557,0.596-8.346
			c5.47-0.614,10.745-2.925,14.533-6.888c1.024-1.071,1.91-2.234,2.692-3.46c1.544,1.322,3.842,1.726,5.831,1.17
			c2.35-0.658,4.263-2.439,5.555-4.511c1.141-1.829,1.872-3.971,1.731-6.122c-0.14-2.151-1.241-4.292-3.098-5.388
			c-0.285-0.168-0.591-0.297-0.905-0.406c0.08-1.04,0.024-2.089-0.191-3.11c3.07-4.33,4.53-9.183,3.839-13.756
			c-0.692-4.574-3.521-8.777-7.497-11.14c-1.055-3.482-4.162-6.619-7.524-8.638c-6.208-3.731-13.941-4.828-20.942-2.974
			c-7.001,1.854-13.177,6.637-16.724,12.951c-1.541-2.185-4.556-2.539-6.674-1.416c-2.119,1.122-3.449,3.33-4.274,5.581
			c-1.311,3.585-1.552,7.542-0.945,11.656c-0.669,0.138-1.326,0.334-1.957,0.6c-2.347,0.989-4.32,2.911-5.216,5.295
			c-1.037,2.758-0.548,6.012,1.163,8.411c1.712,2.398,4.572,3.907,7.513,4.08c2.535,0.149,5.091-0.675,7.135-2.185
			c0.078,0.581,0.169,1.16,0.279,1.737c0.925,4.822,3.112,9.493,6.704,12.84c2.443,2.277,5.459,3.846,8.674,4.785
			c-0.499,2.91-0.998,5.821-1.498,8.732c-4.252,0.202-8.609-0.005-12.924-0.68c-4.45-0.696-8.854-1.889-13.048-3.645
			c-3.738-1.565-7.288-3.608-10.535-6.041c-0.591-0.443-1.165-0.904-1.735-1.374c-2.944-2.426-5.606-5.182-7.835-8.26
			c-1.063-1.468-2.032-3.005-2.895-4.606c-4.945-9.173-6.178-20.443-2.594-30.229c3.746-10.23,12.17-17.998,20.899-24.518
			c4.647,1.016,8.649,1.68,12.676,1.899c0.551,0.03,1.209-0.001,1.504-0.468c0.403-0.643-0.247-1.426-0.872-1.856
			c-1.441-0.991-3.084-1.69-4.798-2.041c-0.301-0.414-0.623-0.805-0.963-1.177l13.481-6.033c0.416-0.186,0.842-0.38,1.158-0.709
			c0.315-0.329,0.495-0.831,0.318-1.252c-0.307-0.732-1.337-0.718-2.117-0.567c-4.376,0.85-9.058,2.381-13.242,3.515
			c3.251-1.953,6.89-4.167,10.141-6.121c0.531-0.318,1.079-0.652,1.435-1.159c0.357-0.507,0.471-1.239,0.103-1.736
			c-0.595-0.803-1.848-0.482-2.758-0.071c-3.798,1.717-7.477,3.633-11.15,5.804c2.686-2.204,5.354-4.386,8.04-6.591
			c0.455-0.374,0.927-0.77,1.143-1.318c0.217-0.547,0.069-1.286-0.467-1.53c-0.489-0.22-1.048,0.041-1.518,0.301
			c-3.292,1.824-6.603,3.945-10.007,5.819c1.316-1.709,2.752-3.537,4.068-5.246c0.282-0.365,0.571-0.744,0.683-1.192
			c0.114-0.447,0.007-0.984-0.376-1.243c-0.569-0.384-1.323,0.024-1.874,0.432c-2.321,1.724-4.503,3.635-7.361,5.734
			c-10.85,5.675-27.489,17.155-35.586,26.34c-8.097,9.185-13.67,21.026-13.506,33.27c0.155,11.53,5.232,22.306,10.499,32.62
			c-2.084,1.023-4.193,2.024-6.351,2.981c8.267,16.999,21.75,31.418,37.782,41.435c-1.32,20.962,1.029,44.532,4.975,65.16
			c0.034,1.561,1.779,2.506,3.296,2.96c3.751,1.121,7.732,1.45,11.618,0.988c1.498,4.804,4.248,9.36,7.416,13.304
			c5.614,6.99,12.616,12.813,17.852,20.091c7.97,11.076,11.335,24.803,13.106,38.334c0.124,0.945,0.236,1.892,0.345,2.839
			c-14.601,7.243-29.201,14.487-43.802,21.73c-4.808,2.386-9.617,4.771-14.426,7.157l0,0c-3.568,1.77-7.135,3.54-10.703,5.31
			l1.72,30.024l15.329-17.789c5.458-1.361,10.83-3.064,16.081-5.081c1.525,3.038,3.152,6.024,4.903,8.938
			c10.535-2.758,20.785-6.069,30.721-9.982c-0.568,4.135-1.312,8.245-2.269,12.313c-2.417,10.272-6.156,20.282-11.236,29.523
			c-2.149,3.909-4.547,7.674-7.178,11.269c-2.113,2.888-4.372,5.668-6.797,8.309l14.727,27.625l5.379-21.78
			c3.106-3.506,6.435-8.504,9.181-13.321c2.285,1.453,4.649,2.779,7.146,3.883c18.276-22.728,29.715-50.857,32.583-79.877
			c5.189-4.158,9.689-9.01,12.726-14.906c6.251-12.134,5.309-26.727,2.275-40.035c-4.483-19.656-13.242-38.32-25.465-54.353
			c1.295-0.203,2.588-0.423,3.876-0.681c-2.882-7.987-5.321-16.003-7.297-24.048c1.355,1.079,2.748,2.111,4.178,3.088
			c1.253-1.229,2.437-2.497,3.567-3.793c6.007,7.054,13.836,12.574,22.581,15.628c4.834,1.688,10.11,2.625,15.078,1.386
			c5.92-1.476,10.754-5.916,14.01-11.075c3.256-5.16,5.141-11.044,6.992-16.858l10.052-31.549c1.219-3.329,2.446-5.957,3.455-8.668
			C234.863,181.01,235.045,180.171,234.517,179.732z"/>
		<g>
			<path style="fill:#F77A36;" d="M102.902,272.238c-5.14,1.155-10.599,0.855-15.581-0.856c-1.497-0.514-3.203-1.53-3.174-3.09
				c0,0-0.746-7.345,6.084-10.424c6.831-3.079,12.34-0.702,12.34-0.702L102.902,272.238z"/>
			<g>
				<g>
					<g>
						<path style="fill:#E8614E;" d="M89.933,368.852c-4.901,2.19-9.802,4.38-14.702,6.57l-3.646,11.979l9.28,5.807
							c8.445-1.748,16.724-4.292,24.695-7.583L89.933,368.852z"/>
						<path style="fill:#2E2854;" d="M64.323,380.297l0.509,30.069l16.033-17.157l-5.634-17.786
							C71.595,377.047,67.959,378.672,64.323,380.297z"/>
					</g>
					<g>
						<path style="fill:#5767BF;" d="M167.561,256.992c12.408,17.009,20.951,36.821,24.802,57.519
							c2.496,13.42,2.85,28.038-3.885,39.911c-6.227,10.979-17.57,17.991-28.893,23.57c-18.203,8.967-37.582,15.46-57.91,19.914
							c-5.027-9.184-8.976-18.957-11.743-29.055c23.531-10.515,47.061-21.03,70.592-31.545l-29.036-83.07L167.561,256.992z"/>
						<path style="fill:none;stroke:#2E2854;stroke-linecap:round;stroke-linejoin:round;stroke-miterlimit:10;" d="
							M103.649,391.558c11.669-4.728,23.657-8.674,35.307-13.462c13.922-5.721,27.553-12.784,38.46-23.157
							c5.96-5.669,11.054-12.438,14.555-19.865"/>
						<path style="opacity:0.15;fill:#2E2854;" d="M119.076,393.512c6.349-1.822,12.594-3.867,18.726-6.15
							c2.178-13.585,3.09-27.369,2.734-41.122c-4.205,1.879-8.411,3.758-12.616,5.638
							C127.208,366.107,124.209,380.219,119.076,393.512z"/>
						<path style="opacity:0.15;fill:#2E2854;" d="M184.871,359.686c-0.479-28.749-9.583-58.132-25.345-81.518
							c3.645,31.358,7.376,63.407,10.848,93.89C175.853,368.625,180.905,364.608,184.871,359.686z"/>
						<path style="opacity:0.15;fill:#2E2854;" d="M167.561,256.992l-36.073-2.755l4.003,11.451
							c0.185,0.012,0.372,0.023,0.557,0.034c11.798,0.726,24.339,0.948,34.96-3.761C169.891,260.283,168.75,258.621,167.561,256.992
							z"/>
					</g>
				</g>
				<g>
					<g>
						<path style="fill:#E8614E;" d="M117.595,430.428c-2.305,3.819-4.853,7.484-7.626,10.971l2.241,10.805l10.486,3.872
							c4.826-5.024,10.283-13.329,13.485-19.515L117.595,430.428z"/>
						<path style="fill:#2E2854;" d="M102.843,449.428l13.602,28.195l6.251-21.546c0.105-0.934-7.331-8.978-12.727-14.678
							C107.742,444.199,105.372,446.887,102.843,449.428z"/>
					</g>
					<g>
						<path style="fill:#5767BF;" d="M98.503,261.409c-2.009,8.737,1.933,17.811,7.261,25.021c5.328,7.21,12.09,13.31,17.028,20.793
							c7.517,11.388,10.327,25.239,11.552,38.831c1.67,18.525,0.652,37.409-4.332,55.329c-2.828,10.166-6.968,20.017-12.416,29.046
							c6.711,6.459,13.5,12.801,21.795,16.876c19.831-22.724,32.618-51.51,36.182-81.46c3.566-29.948-2.105-60.932-16.047-87.677
							l-8.557-21.385c0,0-13.352-3.652-26.912-2.639C110.496,255.156,98.503,261.409,98.503,261.409z"/>
						<path style="fill:none;stroke:#2E2854;stroke-linecap:round;stroke-linejoin:round;stroke-miterlimit:10;" d="M118.565,269.13
							c-0.996,5.303-3.626,10.287-7.439,14.104"/>
						<path style="fill:none;stroke:#2E2854;stroke-linecap:round;stroke-linejoin:round;stroke-miterlimit:10;" d="
							M118.308,257.755c9.772,17.446,19.325,35.222,24.912,54.422c11.509,39.543,4.622,83.978-17.994,118.349"/>
						<path style="opacity:0.15;fill:#2E2854;" d="M154.59,265.833l-3.621-9.05c0,0-13.352-3.652-26.912-2.639
							c-13.561,1.013-25.553,7.265-25.553,7.265c-0.559,2.432-0.644,4.889-0.379,7.326c10.74-4.881,24.675-3.827,37.924-3.012
							C142.153,266.099,148.456,266.337,154.59,265.833z"/>
					</g>
				</g>
			</g>
			<g>
				<g>
					<g>
						<g>
							<path style="fill:#E8614E;" d="M223.462,197.327c-1.057,8.593-4.183,16.852-8.785,24.074
								c-1.69,2.654-3.891,5.357-6.983,5.937c-2.283,0.428-4.658-0.429-6.527-1.808c-1.87-1.379-3.316-3.241-4.719-5.094
								c-2.501-3.304-4.945-6.66-7.395-10.01c0,0-7.291,5.076-10.61,9.386c-3.318,4.31-5.394,12.261-5.394,12.261
								c5.847,8.161,14,14.699,23.338,18.387c4.762,1.881,9.996,3.03,15.01,1.992c5.975-1.237,10.983-5.478,14.445-10.502
								c3.461-5.025,5.582-10.829,7.666-16.563l11.314-31.119c1.352-3.278,2.684-5.854,3.801-8.522
								c0.265-0.632,0.48-1.463-0.03-1.923c-0.343-0.309-0.89-0.285-1.297-0.067c-0.407,0.217-0.706,0.588-0.994,0.949
								c-1.343,1.689-3.038,4.181-4.381,5.868c1.004-3.754,2.533-8.139,3.514-11.772c0.14-0.517,0.26-1.124-0.072-1.545
								c-0.365-0.462-1.117-0.429-1.597-0.088c-0.48,0.342-0.752,0.896-1.005,1.427c-1.496,3.135-3.058,6.338-4.555,9.474
								c1.228-4.087,2.289-8.207,3.045-12.306c0.181-0.981,0.192-2.275-0.73-2.66c-0.572-0.238-1.254,0.049-1.661,0.516
								c-0.406,0.467-0.599,1.079-0.781,1.671c-1.117,3.625-2.318,7.589-3.435,11.213c0.098-4.334,0.386-9.146,0.161-13.598
								c-0.04-0.793-0.273-1.797-1.058-1.919c-0.451-0.071-0.895,0.224-1.139,0.608c-0.244,0.385-0.33,0.847-0.411,1.294
								c-1.004,5.559-2.008,11.12-3.011,16.68L223.462,197.327z"/>
							<g>
								<path style="fill:none;stroke:#2E2854;stroke-linecap:round;stroke-linejoin:round;stroke-miterlimit:10;" d="
									M232.197,185.815c4.185,0.934,8.097,3.055,11.163,6.053"/>
								<path style="fill:none;stroke:#2E2854;stroke-linecap:round;stroke-linejoin:round;stroke-miterlimit:10;" d="
									M244.821,194.269c1.352-3.278,2.684-5.854,3.801-8.522c0.265-0.632,0.48-1.463-0.03-1.923
									c-0.343-0.309-0.89-0.285-1.297-0.067c-0.407,0.217-0.706,0.588-0.994,0.949c-1.343,1.689-3.038,4.181-4.381,5.868
									c1.004-3.754,2.533-8.139,3.514-11.772c0.14-0.517,0.26-1.124-0.072-1.545c-0.365-0.462-1.117-0.429-1.597-0.088
									c-0.48,0.342-0.752,0.896-1.005,1.427c-1.496,3.135-3.058,6.338-4.555,9.474c1.228-4.087,2.289-8.207,3.045-12.306
									c0.181-0.981,0.192-2.275-0.73-2.66c-0.572-0.238-1.254,0.049-1.661,0.516c-0.406,0.467-0.599,1.079-0.781,1.671
									c-1.117,3.625-2.318,7.589-3.435,11.213c0.098-4.334,0.386-9.146,0.161-13.598c-0.04-0.793-0.273-1.797-1.058-1.919
									c-0.451-0.071-0.895,0.224-1.139,0.608c-0.244,0.385-0.33,0.847-0.411,1.294c-1.004,5.559-2.008,11.12-3.011,16.68
									l-2.031,2.752"/>
							</g>
							<path style="opacity:0.15;fill:#2E2854;" d="M224.601,234.375c-5.961,4.621-13.454,7.655-20.966,6.986
								c-5.473-0.487-10.636-2.894-15.118-6.073c-4.766-3.38-8.662-7.603-12.033-12.296c-2.153,4.19-3.435,9.081-3.435,9.081
								c5.847,8.161,14,14.698,23.338,18.387c4.762,1.881,9.996,3.03,15.01,1.992c5.975-1.237,10.983-5.478,14.445-10.502
								c3.361-4.88,5.457-10.493,7.484-16.065C230.617,228.969,227.804,231.89,224.601,234.375z"/>
						</g>
						<g>
							<path style="fill:#E8614E;" d="M223.462,197.327c0.159-1.29,0.271-2.588,0.334-3.891c0.186-3.837,0.188-7.681,0.282-11.521
								c0.01-0.397,0.073-0.879,0.437-1.04c0.419-0.184,0.854,0.21,1.128,0.578c1.578,2.126,2.562,4.689,3.167,7.141
								c4.049,0.426,7.7,3.458,8.861,7.36"/>
							<path style="fill:none;stroke:#2E2854;stroke-linecap:round;stroke-linejoin:round;stroke-miterlimit:10;" d="
								M223.462,197.327c0.159-1.29,0.271-2.588,0.334-3.891c0.186-3.837,0.188-7.681,0.282-11.521
								c0.01-0.397,0.073-0.879,0.437-1.04c0.419-0.184,0.854,0.21,1.128,0.578c1.578,2.126,2.562,4.689,3.167,7.141
								c4.049,0.426,7.7,3.458,8.861,7.36"/>
						</g>
					</g>
					<g>
						<path style="fill:#F7A145;" d="M158.808,176.687c3.242,2.449,6.306,5.141,9.167,7.979
							c7.889,7.826,14.506,16.775,21.077,25.761c-3.873,10.107-9.783,19.438-18.316,27.157c-5.294-3.937-10.039-8.612-14.055-13.847
							c0,0-1.396-16.034-1.518-27.271C155.042,185.229,158.808,176.687,158.808,176.687z"/>
						<g>
							<path style="fill:#F76397;" d="M165.962,189.185c0.681,1.194,1.362,2.389,2.043,3.583c0.331,0.582,0.631,1.401,0.127,1.842
								c-0.297,0.26-0.765,0.236-1.111,0.046c-0.347-0.191-0.599-0.512-0.835-0.828c-1.094-1.462-2.085-3-2.965-4.6
								c-0.246-0.448-0.488-0.988-0.268-1.449c0.278-0.582,1.154-0.624,1.675-0.245C165.15,187.912,165.543,188.45,165.962,189.185z
								"/>
							<path style="fill:#F76397;" d="M174.914,212.095c-0.882,1.054-1.764,2.11-2.646,3.165c-0.429,0.513-1.093,1.08-1.681,0.761
								c-0.347-0.187-0.487-0.635-0.43-1.026c0.057-0.391,0.271-0.739,0.484-1.071c0.989-1.534,2.084-3.001,3.276-4.383
								c0.334-0.388,0.756-0.802,1.266-0.757c0.641,0.057,0.987,0.864,0.814,1.484C175.823,210.889,175.457,211.445,174.914,212.095
								z"/>
						</g>
						<path style="opacity:0.15;fill:#2E2854;" d="M162.557,197.58c-3.547,11.334-3.794,22.644-0.39,32.482
							c2.653,2.727,5.516,5.25,8.57,7.521c3.488-3.155,6.53-6.583,9.181-10.219C172.536,218.789,167.622,207.921,162.557,197.58z"/>
					</g>
				</g>
				<g>
					<g>
						<path style="fill:#E8614E;" d="M102.195,81.112l15.736-6.295c0.423-0.169,0.857-0.345,1.186-0.662
							c0.328-0.316,0.528-0.811,0.368-1.238c-0.277-0.744-1.307-0.771-2.092-0.652c-4.406,0.673-9.146,2.015-13.373,2.979
							c3.327-1.821,7.052-3.886,10.379-5.708c0.544-0.296,1.104-0.608,1.481-1.1c0.377-0.492,0.521-1.219,0.173-1.73
							c-0.562-0.826-1.827-0.556-2.753-0.182c-3.864,1.563-7.617,3.329-11.375,5.35c2.773-2.094,5.526-4.167,8.299-6.262
							c0.469-0.355,0.957-0.732,1.195-1.271c0.239-0.538,0.121-1.283-0.405-1.547c-0.479-0.24-1.049-0.002-1.529,0.24
							c-3.362,1.69-6.757,3.676-10.233,5.412c1.384-1.654,2.892-3.424,4.276-5.078c0.296-0.353,0.6-0.72,0.731-1.163
							c0.132-0.442,0.046-0.983-0.326-1.257c-0.553-0.406-1.323-0.029-1.89,0.356c-2.388,1.629-4.645,3.451-7.586,5.433
							c-11.07,5.233-28.158,16.034-36.618,24.886c-8.461,8.852-14.506,20.459-14.834,32.699
							c-0.33,12.267,4.946,23.906,10.112,35.037l19.353-4.317l6.272-12.719c-1.003-1.51-1.91-3.084-2.707-4.718
							c-4.572-9.365-5.35-20.676-1.374-30.309c4.155-10.071,12.885-17.494,21.869-23.657L102.195,81.112z"/>
						<g>
							<path style="fill:none;stroke:#2E2854;stroke-linecap:round;stroke-linejoin:round;stroke-miterlimit:10;" d="M98.26,67.349
								c2.677,2.843,4.927,6.091,6.649,9.596"/>
							<path style="fill:none;stroke:#2E2854;stroke-linecap:round;stroke-linejoin:round;stroke-miterlimit:10;" d="
								M100.081,82.055l2.114-0.943l15.736-6.295c0.423-0.169,0.857-0.345,1.186-0.662c0.328-0.316,0.528-0.811,0.368-1.238
								c-0.277-0.744-1.307-0.771-2.092-0.652c-4.406,0.673-9.146,2.015-13.373,2.979c3.327-1.821,7.052-3.886,10.379-5.708
								c0.544-0.296,1.104-0.608,1.481-1.1c0.377-0.492,0.521-1.219,0.173-1.73c-0.562-0.826-1.827-0.556-2.753-0.182
								c-3.864,1.563-7.617,3.329-11.375,5.35c2.773-2.094,5.526-4.167,8.299-6.262c0.469-0.355,0.957-0.732,1.195-1.271
								c0.239-0.538,0.121-1.283-0.405-1.547c-0.479-0.24-1.049-0.002-1.529,0.24c-3.362,1.69-6.757,3.676-10.233,5.412
								c1.384-1.654,2.892-3.424,4.276-5.078c0.296-0.353,0.6-0.72,0.731-1.163c0.132-0.442,0.046-0.983-0.326-1.257
								c-0.553-0.406-1.323-0.029-1.89,0.356c-2.388,1.629-4.645,3.451-7.586,5.433"/>
						</g>
						<path style="opacity:0.15;fill:#2E2854;" d="M43.005,124.322c-0.33,12.267,4.946,23.906,10.112,35.037l5.153-1.149
							c-2.885-5.553-5.086-11.441-6.493-17.526c-3.631-15.695-1.97-32.531,4.442-47.296
							C48.617,101.99,43.312,112.879,43.005,124.322z"/>
					</g>
					<g>
						<path style="fill:#E8614E;" d="M95.781,75.629c3.701,0.482,7.159,2.6,9.352,5.888c1.698,0.42,3.312,1.184,4.711,2.233
							c0.606,0.455,1.225,1.264,0.796,1.89c-0.313,0.455-0.972,0.459-1.521,0.407c-4.015-0.381-7.987-1.206-12.59-2.408"/>
						<path style="fill:none;stroke:#2E2854;stroke-linecap:round;stroke-linejoin:round;stroke-miterlimit:10;" d="M95.781,75.629
							c3.701,0.482,7.159,2.6,9.352,5.888c1.698,0.42,3.312,1.184,4.711,2.233c0.606,0.455,1.225,1.264,0.796,1.89
							c-0.313,0.455-0.972,0.459-1.521,0.407c-4.015-0.381-7.987-1.206-12.59-2.408"/>
					</g>
				</g>
				<g>
					<path style="fill:#F7A145;" d="M162.557,197.58l-3.749-20.894c-3.53-2.667-7.271-5.039-11.185-7.002l0,0
						c0,0-10.621,2.92-21.777,1.197c-11.156-1.723-14.754-7.919-14.754-7.919l0,0c-4.418-0.875-8.771-2.244-12.891-4.167
						c-7.795-3.64-14.711-9.328-19.458-16.472c-9.969,7.166-20.955,12.957-33.027,17.738c7.576,17.318,20.467,32.269,36.083,42.923
						c-2.163,20.892-0.765,44.537,2.347,65.308c0.001-0.028,0.002-0.056,0.003-0.084c0.083-1.42,1.557-2.289,2.864-2.85
						c13.298-5.709,28.185-6.353,42.652-6.013c14.469,0.339,29.048,1.571,43.343-0.693
						C166.597,238.361,162.923,218.002,162.557,197.58z"/>
					<g>
						<path style="fill:#F76397;" d="M86.239,150.892c-0.117,0.204-0.213,0.428-0.285,0.639l-1.328,3.906
							c-0.272,0.801-0.414,1.452-0.352,2.093c0.061,0.642,0.674,1.27,1.294,1.091c0.491-0.141,0.735-0.68,0.907-1.162
							c0.597-1.672,1.077-3.386,1.442-5.124C87.345,151.869,86.789,151.384,86.239,150.892z"/>
						<path style="fill:#F76397;" d="M153.786,213.785c0.176-0.354,0.183-0.822-0.089-1.109c-0.46-0.486-1.267-0.155-1.835,0.2
							c-1.167,0.727-2.333,1.455-3.5,2.182c-0.719,0.448-1.239,0.862-1.598,1.398c-0.358,0.536-0.281,1.409,0.311,1.664
							c0.47,0.201,1-0.061,1.438-0.325c1.564-0.943,3.062-1.994,4.479-3.144C153.299,214.403,153.61,214.139,153.786,213.785z"/>
						<path style="fill:#F76397;" d="M145.396,246.978c0.07,0.389,0.151,0.789,0.375,1.115c0.225,0.324,0.632,0.557,1.015,0.458
							c0.648-0.168,0.747-1.035,0.712-1.703c-0.074-1.374-0.147-2.746-0.22-4.12c-0.046-0.846-0.156-1.502-0.452-2.074
							c-0.296-0.573-1.098-0.927-1.607-0.531c-0.404,0.313-0.43,0.905-0.411,1.415C144.876,243.361,145.074,245.181,145.396,246.978
							z"/>
						<path style="fill:#F76397;" d="M69.372,178.979c1.275-0.514,2.55-1.03,3.825-1.544c0.786-0.317,1.371-0.634,1.816-1.1
							c0.446-0.465,0.521-1.339-0.018-1.692c-0.428-0.28-0.996-0.114-1.473,0.071c-1.702,0.657-3.36,1.433-4.956,2.322
							c-0.345,0.192-0.698,0.397-0.932,0.716c-0.235,0.318-0.323,0.777-0.104,1.108C67.9,179.417,68.752,179.23,69.372,178.979z"/>
						<path style="fill:#F76397;" d="M94.074,227.337c0.578,0.338,1.261-0.204,1.708-0.702c0.92-1.023,1.838-2.045,2.757-3.068
							c0.566-0.63,0.951-1.172,1.147-1.786c0.196-0.613-0.121-1.432-0.76-1.512c-0.507-0.063-0.945,0.337-1.292,0.711
							c-1.24,1.339-2.387,2.765-3.43,4.264c-0.226,0.325-0.451,0.664-0.522,1.052C93.61,226.685,93.734,227.137,94.074,227.337z"/>
						<path style="fill:#F76397;" d="M121.47,214.13c-0.091-0.384-0.194-0.779-0.436-1.091c-0.242-0.312-0.661-0.521-1.037-0.401
							c-0.638,0.203-0.689,1.074-0.617,1.74c0.149,1.367,0.298,2.734,0.447,4.1c0.091,0.842,0.239,1.491,0.565,2.047
							c0.327,0.555,1.148,0.864,1.633,0.442c0.386-0.336,0.38-0.928,0.333-1.437C122.188,217.713,121.891,215.908,121.47,214.13z"/>
						<path style="fill:#F76397;" d="M116.353,245.894c-0.507,0.071-0.823,0.571-1.061,1.024c-0.847,1.617-1.581,3.294-2.194,5.013
							c-0.133,0.372-0.262,0.759-0.229,1.153c0.034,0.394,0.271,0.798,0.652,0.902c0.647,0.176,1.164-0.526,1.465-1.124
							c0.62-1.228,1.239-2.455,1.858-3.683c0.381-0.757,0.611-1.38,0.64-2.024C117.51,246.511,116.99,245.804,116.353,245.894z"/>
						<path style="fill:#F76397;" d="M104.92,184.37l-2.757,3.068c-0.566,0.63-0.951,1.172-1.147,1.786
							c-0.195,0.613,0.121,1.432,0.761,1.512c0.507,0.063,0.944-0.336,1.291-0.711c1.241-1.339,2.388-2.765,3.43-4.263
							c0.226-0.325,0.451-0.665,0.522-1.053c0.071-0.389-0.053-0.841-0.393-1.042C106.051,183.329,105.368,183.871,104.92,184.37z"
							/>
					</g>
					<path style="fill:#E8614E;" d="M128.189,163.997c-5.571,0.399-11.389,0.096-17.098-1.034
						c-0.647,6.202-0.296,12.291,2.228,17.631c2.754,5.826,8.579,10.547,15.022,10.418c5.689-0.115,10.788-3.924,13.947-8.658
						c2.555-3.83,4.056-8.224,5.334-12.668C141.524,166.625,135.003,164.566,128.189,163.997z"/>
					<path style="opacity:0.15;fill:#2E2854;" d="M81.799,202.984c0.793-6.091,2.078-9.833,3.976-14.774
						c-12.675-8.053-22.77-19.666-28.972-32.998c-3.593,1.72-7.28,3.342-11.087,4.85C53.293,177.38,66.183,192.33,81.799,202.984z"
						/>
				</g>
			</g>
			<g>
				<g>
					<path style="fill:#E8614E;" d="M126.3,153.269c-1.105,5.18-2.21,10.36-3.315,15.541c0,0,10.851,2.201,11.218,1.732
						c1.064-5.232,1.742-10.542,2.029-15.873L126.3,153.269z"/>
					<path style="fill:#D15046;" d="M125.268,158.11c3.167,1.781,6.973,2.407,10.546,1.749c0.176-1.727,0.326-3.456,0.419-5.19
						l-9.932-1.401C125.956,154.883,125.612,156.497,125.268,158.11z"/>
				</g>
				<path style="fill:#654687;" d="M157.388,140.883c2.103-1.046,3.856-2.781,4.922-4.875c1.067-2.093,1.44-4.531,1.051-6.847
					c3.242-4.203,4.896-8.993,4.389-13.59c-0.507-4.598-3.165-8.912-7.042-11.433c-0.914-3.522-3.892-6.781-7.17-8.934
					c-6.052-3.978-13.735-5.385-20.805-3.815c-7.07,1.57-13.433,6.101-17.232,12.267c-1.452-2.246-4.45-2.72-6.612-1.684
					c-2.162,1.035-3.58,3.188-4.495,5.405c-1.993,4.834-2.025,10.444-0.596,16.26c1.408,3.371,4.163,5.994,7.077,8.198
					C123.985,141.747,143.17,147.953,157.388,140.883z"/>
				<g>
					<path style="fill:#E8614E;" d="M158.319,133.062c1.581-1.466,4.186-1.513,5.996-0.344c1.811,1.17,2.825,3.353,2.879,5.508
						c0.054,2.155-0.762,4.265-1.976,6.047c-1.374,2.018-3.357,3.72-5.732,4.283c-2.375,0.561-5.139-0.218-6.513-2.235
						L158.319,133.062z"/>
					<g>
						<g>
							<path style="fill:#E8614E;" d="M159.933,126.528c-0.859,8.686-2.774,17.914-9.056,23.974
								c-5.232,5.05-12.964,7.094-20.173,6.139c-4.965-0.659-9.831-2.713-13.354-6.273c-3.455-3.489-5.452-8.244-6.182-13.099
								c-0.729-4.855-0.261-9.823,0.699-14.637c0.442,1.233,0.992,3.047,1.961,4.605c0.287,0.46,0.695,0.945,1.237,0.939
								c0.639-0.007,1.042-0.673,1.296-1.26c0.607-1.401,1.1-2.85,1.471-4.329c7.369-1.355,14.186-4.608,19.72-9.466
								c0.862,4.81,3.92,9.181,8.143,11.641C149.918,127.219,155.228,127.721,159.933,126.528z"/>
							<g>
								<path style="fill:#D15046;" d="M147.22,145.14c-2.552-0.26-5.19,1.238-6.275,3.563c-1.211,2.594-0.447,5.262,1.146,6.939
									c3.274-1.044,6.311-2.752,8.786-5.141c0.516-0.498,0.992-1.024,1.451-1.563C151.448,146.903,149.437,145.365,147.22,145.14z
									"/>
								<path style="fill:#D15046;" d="M115.653,137.034c-1.612,0.272-3.063,1.244-4.019,2.566c0.855,3.583,2.435,6.997,4.82,9.771
									c1.592,0.046,3.207-0.488,4.396-1.555c1.91-1.713,2.856-4.808,1.299-7.64C120.912,137.927,118.182,136.607,115.653,137.034z
									"/>
							</g>
						</g>
						<g>
							<path style="fill:none;stroke:#2E2854;stroke-linecap:round;stroke-linejoin:round;stroke-miterlimit:10;" d="
								M138.768,132.825c0.217,1.647,1.025,3.209,2.139,4.477c-0.935,0.414-1.938,0.676-2.955,0.773"/>
							<path style="fill:none;stroke:#2E2854;stroke-linecap:round;stroke-linejoin:round;stroke-miterlimit:10;" d="
								M127.132,137.921c3.28,2.969,7.843,4.468,12.244,4.025"/>
							<path style="fill:#2E2854;" d="M128.701,128.101c-0.544-0.539-1.517-0.56-2.082-0.043c-0.566,0.516-0.634,1.487-0.147,2.077
								c0.488,0.59,1.454,0.707,2.068,0.249C129.155,129.927,129.457,128.851,128.701,128.101z"/>
							<path style="fill:#2E2854;" d="M149.802,134.084c-0.544-0.539-1.517-0.559-2.083-0.043c-0.566,0.516-0.634,1.487-0.146,2.077
								c0.488,0.59,1.454,0.707,2.068,0.249C150.255,135.91,150.558,134.833,149.802,134.084z"/>
						</g>
					</g>
					<g>
						<path style="fill:#E8614E;" d="M111.933,134.786c-2.243,1.911-5.259,2.921-8.191,2.63c-2.932-0.291-5.729-1.914-7.343-4.379
							c-1.613-2.466-1.97-5.737-0.823-8.451c0.992-2.346,3.041-4.186,5.425-5.08c2.384-0.895,5.072-0.873,7.5-0.102
							c1.472,0.468,2.969,1.323,3.367,3.226C111.377,126.284,111.44,130.012,111.933,134.786z"/>
						<g>
							<path style="fill:none;stroke:#2E2854;stroke-linecap:round;stroke-linejoin:round;stroke-miterlimit:10;" d="
								M99.977,126.965c2.205-1.793,5.34-2.367,8.037-1.47"/>
							<path style="fill:none;stroke:#2E2854;stroke-linecap:round;stroke-linejoin:round;stroke-miterlimit:10;" d="
								M103.687,125.247c-0.029,2.271,0.905,4.574,2.579,6.116"/>
						</g>
					</g>
				</g>
			</g>
		</g>
	</g>
	<g>
		<path style="opacity:0.15;fill:#2E2854;" d="M464.229,292.317l-33.23-10.219l-4.41,6.901l-3.699,5.789
			c-0.948-0.268-1.92-0.472-2.926-0.56c-8.045-0.709-15.645,4.668-19.94,11.508c-2.469,3.932-4.058,8.29-5.262,12.79
			c-1.073-8.686-2.38-17.343-3.935-25.956c2.952-7.059,4.128-14.721,3.437-22.14c1.167-0.107,2.335-0.271,3.388-0.77
			c1.258-0.596,2.335-1.78,2.393-3.171c0.01-0.243-0.011-0.481-0.06-0.713c-0.54-7.213-1.158-14.438-1.877-21.656
			c5.756,2.193,12.101,2.815,18.039,1.269c7.969-2.075,14.943-8.34,16.977-16.32c1.141-4.479,0.842-9.494,3.432-13.323
			c1.791-2.649,4.69-4.285,7.221-6.241c10.586-8.18,14.881-23.59,10.051-36.066c-2.517-6.503-7.402-11.607-13.388-15.025
			c2.414-4.362,4.266-9.012,5.408-13.882c5.116-21.831,0.065-37.696-7.15-55.506c-1.932-4.771-2.44-9.631-3.75-14.239
			c-0.122-0.433-0.253-0.88-0.542-1.224c-0.288-0.346-0.783-0.561-1.198-0.391c-0.566,0.231-0.676,0.973-0.686,1.585
			c-0.033,2.065,0.184,4.581,0.475,6.627c-1.223-3.817-2.604-7.955-4.445-11.348c-0.303-0.559-0.734-1.181-1.37-1.193
			c-0.56-0.011-1.02,0.499-1.148,1.045c-0.129,0.545-0.005,1.114,0.117,1.66c0.744,3.31,1.679,6.965,2.423,10.275
			c-1.406-3.356-3.239-7.049-5.268-10.144c-0.38-0.579-0.91-1.218-1.6-1.153c-0.59,0.055-1.013,0.65-1.08,1.238
			c-0.068,0.59,0.133,1.173,0.33,1.732l3.542,9.691c-2.011-3.231-4.282-6.577-6.599-9.453c-0.397-0.493-0.894-1.024-1.526-1.007
			c-0.708,0.021-1.217,0.775-1.229,1.484c-0.014,0.709,0.329,1.371,0.662,1.997c2.094,3.93,4.187,7.86,6.281,11.79
			c-0.283,0.199-0.563,0.402-0.823,0.632c-2.059-1.721-4.547-3.112-7.219-3.772c-0.574-0.142-1.287-0.206-1.654,0.258
			c-0.255,0.323-0.228,0.801-0.042,1.17c0.185,0.367,0.501,0.65,0.81,0.923c3.192,2.825,6.385,5.65,9.863,8.849
			c4.863,10.113,7.44,21.583,5.649,32.66c-1.52,9.41-6.486,18.436-14.054,24.102c-0.812-0.172-1.602-0.375-2.379-0.612
			c-2.926-0.895-5.664-2.643-7.329-5.21c-1.858-2.862-2.223-6.4-2.771-9.766c-0.548-3.368-1.456-6.929-4.013-9.187
			c-2.356-2.079-5.633-2.639-8.663-3.465c-0.416-0.113-0.835-0.242-1.252-0.381c-0.468-0.756-1.046-1.437-1.751-1.983
			c-1.066-0.825-2.322-1.273-3.636-1.417c-0.328-0.426-0.624-0.878-0.839-1.39c-0.87-2.077-0.496-4.434-0.56-6.686
			c-0.163-5.64-3.404-11.096-8.279-13.937c-4.876-2.84-11.221-2.969-16.207-0.33c-2.037-5.149-6.696-8.178-11.494-8.435
			c-4.796-0.257-9.557,2.065-12.687,5.709c-3.13,3.644-4.694,8.487-4.791,13.289c-0.072,3.55,0.623,7.076,1.822,10.426
			c-0.51,0.386-0.97,0.834-1.357,1.336c-1.801,2.336-2.237,5.534-1.635,8.423c0.4,1.916,1.29,3.819,2.879,4.96
			c0.132,0.095,0.277,0.172,0.419,0.253c-2.157,5.044-1.711,11.184,1.244,15.894c1.813,2.891,4.538,5.423,5.033,8.799
			c0.018,0.122,0.025,0.244,0.037,0.366c-12.219-1.829-24.366-4.142-36.401-6.939c-3.791-0.881-7.57-1.81-11.337-2.786
			c-18.048-4.675-36.586-10.902-49.61-24.239c-1.429-5.018-2.308-9.19-3.188-13.362c-0.085-0.402-0.174-0.817-0.402-1.159
			c-0.228-0.344-0.631-0.604-1.037-0.541c-0.585,0.09-0.881,0.742-1.041,1.311c-0.745,2.649-0.766,5.499-0.284,8.14
			c-0.328,0.112-0.644,0.256-0.957,0.404c-2.384-3.761-4.767-7.523-7.151-11.284c-0.381-0.599-0.786-1.224-1.41-1.563
			c-0.623-0.339-1.53-0.27-1.898,0.337c-0.327,0.542-0.112,1.235,0.121,1.824c1.357,3.435,2.99,6.771,4.806,10.116
			c-2.184-2.518-4.338-5.058-6.522-7.575c-0.39-0.447-0.797-0.91-1.343-1.142c-0.546-0.233-1.271-0.158-1.611,0.327
			c-0.398,0.568-0.104,1.344,0.213,1.96c1.69,3.293,3.752,6.529,5.975,9.409c-2.51-2.282-4.983-4.718-7.494-7
			c-0.414-0.376-0.848-0.764-1.386-0.922c-0.537-0.158-1.208-0.01-1.476,0.483c-0.304,0.558,0.025,1.24,0.361,1.78
			c2.042,3.277,4.826,6.333,7.541,9.283c-1.634-1.263-3.583-2.508-5.396-3.5c-0.536-0.293-1.236-0.564-1.717-0.187
			c-0.354,0.278-0.41,0.813-0.253,1.235c0.157,0.422,0.481,0.756,0.797,1.075c3.361,3.416,7.337,6.257,10.654,10.401
			c17.445,19.456,40.137,34.138,64.993,42.186c-1.367,3.276-2.741,6.561-4.118,9.87c8.598,6.417,17.99,11.77,27.891,15.903
			c-3.753,20.147-7.167,41.875-8.801,60.898c1.152,0.252,2.306,0.474,3.461,0.683c-11.235,20.423-21.06,41.767-26.785,64.352
			c-5.943,23.434-7.338,48.348-1.298,71.758c1.687,6.537,4.105,13.187,8.983,17.854c3.636,3.477,8.503,5.519,13.514,5.964
			c1.125,3.139,2.25,6.278,3.374,9.417c0.232,0.996-2.02,24.465-2.02,24.465l22.35-25.051c-0.895-2.203-1.79-4.406-2.686-6.609
			c-1.121-2.759-2.243-5.519-3.364-8.278c3.414-3.104,5.995-7.149,7.281-11.586c2.837-9.79-0.308-20.16-1.849-30.235
			c-3.739-24.442,2.923-50.737,19.137-69.243c0.256,6.085,0.78,12.147,1.781,18.156c2.276,13.667,7.181,27.185,16.133,37.759
			c5.474,6.464,12.963,11.888,21.26,12.802c0.957,0.105,1.925,0.151,2.902,0.131c7.324-0.15,14.098-3.93,19.886-8.419
			c9.089-7.052,16.558-16.061,22.51-25.906c5.07-8.383,9.173-17.911,8.307-27.669c-0.164-1.855-0.561-3.708-1.159-5.5l4.527-9.622
			L464.229,292.317z"/>
		<g>
			<g>
				<path style="fill:#D24D84;" d="M317.204,121.44c-2.208-4.266-3.667-8.982-3.731-13.785c-0.064-4.803,1.338-9.695,4.344-13.442
					c3.007-3.746,7.687-6.226,12.489-6.13c4.804,0.096,9.562,2.967,11.77,8.045c4.895-2.805,11.241-2.887,16.209-0.213
					c4.967,2.676,8.389,8.02,8.741,13.652c0.14,2.248-0.156,4.616,0.783,6.663c1.309,2.856,4.591,4.193,7.647,4.917
					c3.056,0.725,6.349,1.174,8.774,3.173c2.631,2.17,3.658,5.7,4.319,9.047c0.66,3.346,1.143,6.87,3.096,9.668
					c1.75,2.509,4.545,4.165,7.5,4.962c2.953,0.797,6.065,1.118,9.915,1c13.373-0.41,27.119,6.521,32.362,18.828
					c5.245,12.307,1.468,27.853-8.838,36.382c-2.464,2.04-5.306,3.772-7.008,6.479c-2.46,3.913-1.993,8.915-2.984,13.43
					c-1.765,8.043-8.526,14.538-16.421,16.879c-7.896,2.341-16.658,0.806-23.824-3.251c-7.167-4.057-12.816-10.464-16.877-17.629
					c0,0-39.069-52.606-39.29-52.163c-1.79-0.7-2.568-2.839-2.637-4.761c-0.069-1.921,0.349-3.864,0.007-5.756
					c-0.607-3.358-3.416-5.797-5.324-8.626c-3.65-5.406-3.928-12.898-0.516-18.397C317.509,127.397,318.556,124.053,317.204,121.44z
					"/>
				<g>
					<path style="fill:#FF98AA;" d="M334.253,143.094c-0.742,6.316-1.486,12.631-2.228,18.946c0,0,12.743,0.183,12.856,0.433
						c-0.188-6.194-0.131-12.394,0.174-18.582L334.253,143.094z"/>
					<path style="fill:#FF8095;" d="M334.253,143.095c-0.288,2.447-0.575,4.894-0.863,7.34c3.663,1.235,7.673,1.398,11.436,0.513
						c0.044-2.353,0.113-4.705,0.229-7.056L334.253,143.095z"/>
				</g>
				<g>
					<g>
						<path style="fill:#FF98AA;" d="M361.436,120.028c3.028-2.536,7.737-3.452,10.939-1.142c1.717,1.24,2.789,3.24,3.197,5.318
							c0.568,2.9-0.129,6.064-2.013,8.34c-1.885,2.276-4.964,3.562-7.887,3.122c-2.923-0.44-5.544-2.673-6.274-5.536
							L361.436,120.028z"/>
						<g>
							<path style="fill:none;stroke:#2E2854;stroke-linecap:round;stroke-linejoin:round;stroke-miterlimit:10;" d="
								M366.191,122.775c1.326,0.236,2.685,0.483,3.843,1.172c1.157,0.69,2.087,1.927,2.018,3.272"/>
							<path style="fill:none;stroke:#2E2854;stroke-linecap:round;stroke-linejoin:round;stroke-miterlimit:10;" d="
								M370.057,123.955c-0.884,1.841-2.324,3.419-4.079,4.441"/>
						</g>
					</g>
					<g>
						<path style="fill:#FF98AA;" d="M361.902,119.661c-0.272,4.208-0.64,8.445-1.838,12.487c-1.199,4.042-3.294,7.918-6.529,10.622
							c-4.231,3.534-10.015,4.732-15.523,4.511c-4.635-0.186-9.422-1.392-12.885-4.478c-3.881-3.459-5.581-8.858-5.651-14.056
							c-0.069-5.197,1.305-10.295,3.042-15.237c4.147,3.276,10.027,3.688,15.098,2.198c5.07-1.491,9.478-4.647,14.338-6.598
							c0.107,1.979,0.254,3.98,0.871,5.863c0.618,1.884,1.758,3.664,3.459,4.679C357.986,120.67,360.295,120.78,361.902,119.661z"/>
						<g>
							<path style="fill:#FF8095;" d="M353.748,134.668c-2.408-0.925-5.364-0.161-7.022,1.816c-2.003,2.386-1.786,5.589-0.272,7.679
								c0.483,0.665,1.115,1.202,1.819,1.621c1.905-0.715,3.691-1.702,5.262-3.014c1.503-1.256,2.75-2.772,3.785-4.433
								C356.686,136.697,355.395,135.301,353.748,134.668z"/>
							<path style="fill:#FF8095;" d="M325.126,142.803c0.543,0.484,1.128,0.907,1.731,1.302c0.214-0.214,0.414-0.441,0.592-0.687
								c1.514-2.09,1.73-5.293-0.272-7.679c-1.658-1.977-4.614-2.741-7.023-1.816c-0.008,0.003-0.016,0.009-0.025,0.012
								C320.942,137.328,322.541,140.498,325.126,142.803z"/>
						</g>
						<g>
							<path style="fill:none;stroke:#2E2854;stroke-linecap:round;stroke-linejoin:round;stroke-miterlimit:10;" d="
								M323.927,123.132c1.805-0.902,4.193-0.424,5.513,1.102"/>
							<path style="fill:none;stroke:#2E2854;stroke-linecap:round;stroke-linejoin:round;stroke-miterlimit:10;" d="
								M336.652,123.273c-0.709,1.253-1.489,2.467-2.334,3.632c0.831,0.316,1.738,0.424,2.62,0.313"/>
							<path style="fill:none;stroke:#2E2854;stroke-linecap:round;stroke-linejoin:round;stroke-miterlimit:10;" d="
								M346.127,125.591c0.835-0.719,1.937-1.121,3.039-1.109c1.102,0.012,2.194,0.439,3.014,1.177"/>
							<path style="fill:none;stroke:#2E2854;stroke-linecap:round;stroke-linejoin:round;stroke-miterlimit:10;" d="
								M333.157,134.725c3.823,0.137,7.68-1.05,10.766-3.311"/>
						</g>
					</g>
					<path style="fill:#FF98AA;" d="M321.453,132.539c-1.415,1.352-3.802,1.276-5.43,0.19c-1.627-1.087-2.579-2.959-3.043-4.86
						c-0.699-2.867-0.37-6.077,1.352-8.473c1.723-2.396,4.969-3.755,8.311-2.434C321.402,121.756,321.211,126.821,321.453,132.539z"
						/>
				</g>
			</g>
			<g>
				<path style="fill:#4590A1;" d="M384.461,266.838c1.383-0.159,2.801-0.328,4.038-0.966c1.237-0.638,2.274-1.858,2.286-3.249
					c0.002-0.243-0.027-0.48-0.084-0.71c0,0-1.175-6.96-6.241-9.136C379.396,250.6,384.461,266.838,384.461,266.838z"/>
				<g>
					<g>
						<path style="fill:#2E2854;" d="M307.593,426.743l-5.009,6.688c0.266,0.988-1.2,24.519-1.2,24.519l21.499-25.785
							c-0.968-2.172-1.937-4.344-2.906-6.516L307.593,426.743z"/>
						<path style="fill:#FF98AA;" d="M315.352,415.28l-17.908,5.192c1.713,4.32,3.426,8.64,5.14,12.961l17.393-7.781
							C318.435,422.194,316.894,418.736,315.352,415.28z"/>
						<path style="fill:#FF8095;" d="M315.352,415.28l-17.908,5.192c0.8,2.017,1.6,4.035,2.4,6.053
							c4.334,0.216,12.04-0.35,17.835-6.024C316.904,418.759,316.128,417.02,315.352,415.28z"/>
					</g>
					<g>
						<path style="fill:#F7A145;" d="M300.317,261.763c-11.051,21.502-20.655,43.938-25.808,67.558
							c-5.155,23.62-5.715,48.566,1.105,71.761c1.905,6.476,4.544,13.042,9.576,17.543c5.99,5.355,14.997,6.951,22.57,4.265
							c7.573-2.685,13.49-9.435,15.467-17.222c2.507-9.88-0.983-20.139-2.86-30.156c-4.972-26.526,2.358-55.68,21.323-74.878
							l-2.274-41.101L300.317,261.763z"/>
						<path style="fill:none;stroke:#2E2854;stroke-linecap:round;stroke-linejoin:round;stroke-miterlimit:10;" d="
							M313.284,416.812c-2.993-21.925-5.637-44.064-3.269-66.034c2.546-23.64,11.532-47.442,29.244-63.306"/>
						<path style="opacity:0.15;fill:#2E2854;" d="M296.099,270.176c14.457,0.752,29.131,0.492,43.873-0.591l-0.556-10.054
							l-39.098,2.232C298.884,264.551,297.477,267.356,296.099,270.176z"/>
						<path style="opacity:0.15;fill:#2E2854;" d="M336.285,282.379c-14.921,15.032-20.657,39.478-15.867,60.022
							c2.942-15.594,10.027-30.312,21.123-41.613C340.785,294.078,338.957,287.606,336.285,282.379z"/>
					</g>
				</g>
				<g>
					<g>
						<polygon style="fill:#FF98AA;" points="425.582,283.522 418.07,284.232 413.145,292.539 428.605,304.381 432.992,294.184 
													"/>
						<polygon style="fill:#2E2854;" points="422.246,277.187 418.07,284.232 432.992,294.184 455.8,286.289 						"/>
						<path style="fill:#FF8095;" d="M413.145,292.539l15.46,11.842l2.163-5.029c-4.673-7.397-12.642-10.139-15.226-10.858
							L413.145,292.539z"/>
					</g>
					<g>
						<path style="fill:#F7A145;" d="M378.628,373.033c0.96,0.073,1.929,0.086,2.905,0.034c7.315-0.395,13.959-4.399,19.593-9.08
							c8.848-7.352,16.011-16.606,21.631-26.645c4.786-8.548,8.569-18.208,7.376-27.932c-1.191-9.722-8.728-19.198-18.509-19.73
							c-8.065-0.439-15.48,5.189-19.544,12.168c-4.063,6.98-5.43,15.155-6.728,23.126L378.628,373.033z"/>
						<path style="opacity:0.15;fill:#2E2854;" d="M392.079,301.848c-4.063,6.98-5.43,15.155-6.728,23.126l-0.382,2.732l5.89,15.595
							c5.406-15.669,7.794-31.718,5.965-47.489C394.967,297.593,393.357,299.653,392.079,301.848z"/>
						<path style="fill:none;stroke:#2E2854;stroke-linecap:round;stroke-linejoin:round;stroke-miterlimit:10;" d="
							M385.999,355.114c2.582-0.063,5.015-2.012,6.961-3.901c14.53-14.099,25.829-31.498,32.84-50.487"/>
					</g>
					<g>
						<path style="fill:#F7A145;" d="M378.628,373.033c-8.324-0.635-15.99-5.806-21.677-12.083
							c-9.301-10.268-14.655-23.614-17.388-37.198c-2.732-13.582-3.01-27.521-3.278-41.374l-3.128-25.564h49.497
							c3.893,10.122,3.757,21.733-0.208,32.183c3.859,17.916,6.67,36.059,8.413,54.304L378.628,373.033z"/>
						<path style="fill:none;stroke:#2E2854;stroke-linecap:round;stroke-linejoin:round;stroke-miterlimit:10;" d="
							M385.999,355.114c-0.468,0.011-0.942-0.039-1.418-0.163c-1.323-0.346-2.333-1.164-3.112-2.239
							c-1.264-1.745-1.921-4.168-2.328-6.35c-3.498-18.731-4.836-37.864-3.978-56.897c0.482-10.7,1.496-22.13-3.806-31.435"/>
						<path style="opacity:0.15;fill:#2E2854;" d="M333.157,256.815l1.606,13.124c16.605-0.999,33.317-3.078,49.924-5.963
							c-0.471-2.443-1.141-4.842-2.033-7.161H333.157z"/>
					</g>
				</g>
			</g>
			<g>
				<g>
					<g>
						<path style="fill:#FF98AA;" d="M408.043,91.519c5.199,9.944,8.158,21.322,6.739,32.453
							c-1.418,11.132-7.612,21.909-17.403,27.392c-1.249,0.7-2.535,1.306-3.85,1.834l3.815,29.566
							c17.115-8.734,31.379-24.716,35.135-43.561c4.382-21.99-1.197-37.677-9.004-55.235c-2.09-4.704-2.761-9.544-4.224-14.106
							c-0.137-0.428-0.282-0.871-0.582-1.205c-0.299-0.336-0.801-0.534-1.211-0.35c-0.558,0.25-0.643,0.995-0.632,1.607
							c0.037,2.065,0.338,4.572,0.697,6.607c-1.35-3.774-2.869-7.863-4.823-11.193c-0.322-0.549-0.773-1.156-1.409-1.146
							c-0.56,0.008-1.003,0.533-1.113,1.083c-0.111,0.549,0.032,1.114,0.172,1.655c0.855,3.283,1.911,6.905,2.766,10.188
							c-1.518-3.307-3.473-6.937-5.605-9.962c-0.399-0.566-0.95-1.187-1.637-1.099c-0.588,0.075-0.99,0.683-1.039,1.273
							c-0.048,0.592,0.172,1.167,0.388,1.72l3.865,9.567c-2.118-3.162-4.5-6.43-6.912-9.227c-0.413-0.479-0.928-0.993-1.559-0.955
							c-0.707,0.044-1.191,0.815-1.179,1.524c0.01,0.709,0.374,1.359,0.729,1.974c2.68,4.647,5.358,9.294,8.037,13.941
							L408.043,91.519z"/>
						<path style="fill:#FF8095;" d="M397.344,182.763c17.115-8.734,31.379-24.716,35.135-43.561
							c1.702-8.541,1.896-16.129,1.046-23.247c-1.681,14.16-7.001,28.314-15.542,40.186c-5.822,8.091-13.131,15.091-21.411,20.64
							L397.344,182.763z"/>
						<g>
							<path style="fill:none;stroke:#2E2854;stroke-linecap:round;stroke-linejoin:round;stroke-miterlimit:10;" d="
								M406.895,79.902c3.501-2.406,7.814-3.605,12.053-3.348"/>
							<path style="fill:none;stroke:#2E2854;stroke-linecap:round;stroke-linejoin:round;stroke-miterlimit:10;" d="
								M423.475,83.966c-2.09-4.704-2.761-9.544-4.224-14.106c-0.137-0.428-0.282-0.871-0.582-1.205
								c-0.299-0.336-0.801-0.534-1.211-0.35c-0.558,0.25-0.643,0.995-0.632,1.607c0.037,2.065,0.338,4.572,0.697,6.607
								c-1.35-3.774-2.869-7.863-4.823-11.193c-0.322-0.549-0.773-1.156-1.409-1.146c-0.56,0.008-1.003,0.533-1.113,1.083
								c-0.111,0.549,0.032,1.114,0.172,1.655c0.855,3.283,1.911,6.905,2.766,10.188c-1.518-3.307-3.473-6.937-5.605-9.962
								c-0.399-0.566-0.95-1.187-1.637-1.099c-0.588,0.075-0.99,0.683-1.039,1.273c-0.048,0.592,0.172,1.167,0.388,1.72l3.865,9.567
								c-2.118-3.162-4.5-6.43-6.912-9.227c-0.413-0.479-0.928-0.993-1.559-0.955c-0.707,0.044-1.191,0.815-1.179,1.524
								c0.01,0.709,0.374,1.359,0.729,1.974c2.68,4.647,5.358,9.294,8.037,13.941"/>
						</g>
					</g>
					<g>
						<path style="fill:#FF98AA;" d="M415.682,81.849c-3.319-0.985-7.131-0.073-9.645,2.306c-2.116-1.652-4.649-2.958-7.341-3.528
							c-0.578-0.122-1.294-0.163-1.644,0.313c-0.244,0.331-0.201,0.808-0.003,1.17c0.197,0.361,0.523,0.632,0.84,0.895
							c3.285,2.716,6.571,5.433,10.154,8.514"/>
						<path style="fill:none;stroke:#2E2854;stroke-linecap:round;stroke-linejoin:round;stroke-miterlimit:10;" d="M415.682,81.849
							c-3.319-0.985-7.131-0.073-9.645,2.306c-2.116-1.652-4.649-2.958-7.341-3.528c-0.578-0.122-1.294-0.163-1.644,0.313
							c-0.244,0.331-0.201,0.808-0.003,1.17c0.197,0.361,0.523,0.632,0.84,0.895c3.285,2.716,6.571,5.433,10.154,8.514"/>
					</g>
				</g>
				<g>
					<g>
						<path style="fill:#FF98AA;" d="M284.251,179.138c-27.594-6.566-53.209-21.232-72.842-41.705
							c-3.454-4.031-7.523-6.737-10.996-10.039c-0.326-0.309-0.661-0.631-0.833-1.048c-0.17-0.416-0.133-0.953,0.212-1.243
							c0.468-0.394,1.176-0.146,1.722,0.129c1.845,0.931,3.835,2.109,5.51,3.317c-2.811-2.858-5.697-5.819-7.847-9.025
							c-0.354-0.528-0.705-1.199-0.421-1.767c0.251-0.502,0.917-0.672,1.459-0.532c0.543,0.14,0.989,0.513,1.416,0.875
							c2.586,2.196,5.139,4.548,7.724,6.745c-2.318-2.804-4.488-5.969-6.286-9.204c-0.337-0.605-0.656-1.371-0.278-1.952
							c0.323-0.497,1.045-0.596,1.599-0.381c0.553,0.214,0.976,0.662,1.38,1.096c2.267,2.443,4.505,4.909,6.772,7.352
							c-1.927-3.282-3.671-6.561-5.142-9.949c-0.252-0.581-0.491-1.267-0.182-1.819c0.347-0.619,1.251-0.718,1.885-0.4
							c0.634,0.318,1.061,0.929,1.461,1.515c3.021,4.432,6.042,8.864,9.064,13.297l5.54,2.716
							c13.464,12.894,32.2,18.497,50.394,22.565c3.798,0.849,7.607,1.651,11.424,2.405L284.251,179.138z"/>
						<path style="fill:#FF8095;" d="M284.251,179.138l0.464-4.584c-23.165-6.934-45.386-17.012-65.853-29.89
							C237.328,161.363,260.026,173.374,284.251,179.138z"/>
						<g>
							<path style="fill:none;stroke:#2E2854;stroke-linecap:round;stroke-linejoin:round;stroke-miterlimit:10;" d="
								M206.498,129.78c1.368-3.561,3.883-6.672,7.081-8.753"/>
							<path style="fill:none;stroke:#2E2854;stroke-linecap:round;stroke-linejoin:round;stroke-miterlimit:10;" d="
								M211.41,137.433c-3.454-4.031-7.523-6.737-10.996-10.039c-0.326-0.309-0.661-0.631-0.833-1.048
								c-0.17-0.416-0.133-0.953,0.212-1.243c0.468-0.394,1.176-0.146,1.722,0.129c1.845,0.931,3.835,2.109,5.51,3.317
								c-2.811-2.858-5.697-5.819-7.847-9.025c-0.354-0.528-0.705-1.199-0.421-1.767c0.251-0.502,0.917-0.672,1.459-0.532
								c0.543,0.14,0.989,0.513,1.416,0.875c2.586,2.196,5.139,4.548,7.724,6.745c-2.318-2.804-4.488-5.969-6.286-9.204
								c-0.337-0.605-0.656-1.371-0.278-1.952c0.323-0.497,1.045-0.596,1.599-0.381c0.553,0.214,0.976,0.662,1.38,1.096
								c2.267,2.443,4.505,4.909,6.772,7.352c-1.927-3.282-3.671-6.561-5.142-9.949c-0.252-0.581-0.491-1.267-0.182-1.819
								c0.347-0.619,1.251-0.718,1.885-0.4c0.634,0.318,1.061,0.929,1.461,1.515c3.021,4.432,6.042,8.864,9.064,13.297"/>
						</g>
					</g>
					<g>
						<path style="fill:#FF98AA;" d="M212.762,129.39c0.555-3.417,3.034-6.454,6.27-7.684c-0.57-2.623-0.644-5.472,0.012-8.144
							c0.141-0.575,0.415-1.236,0.996-1.346c0.404-0.076,0.815,0.17,1.055,0.506c0.24,0.335,0.343,0.746,0.441,1.145
							c1.019,4.14,2.038,8.28,3.633,13.247"/>
						<path style="fill:none;stroke:#2E2854;stroke-linecap:round;stroke-linejoin:round;stroke-miterlimit:10;" d="M212.762,129.39
							c0.555-3.417,3.034-6.454,6.27-7.684c-0.57-2.623-0.644-5.472,0.012-8.144c0.141-0.575,0.415-1.236,0.996-1.346
							c0.404-0.076,0.815,0.17,1.055,0.506c0.24,0.335,0.343,0.746,0.441,1.145c1.019,4.14,2.038,8.28,3.633,13.247"/>
					</g>
				</g>
				<g>
					<path style="fill:#67B2C3;" d="M393.529,153.197c-7.25,2.909-15.396,3.418-23.277,3.852
						c-10.734,0.592-22.979,1.474-33.713,2.067c-16.628-1.451-33.177-3.799-49.552-7.031c-3.987,11.8-8.503,23.433-12.993,35.338
						c8.808,6.126,18.374,11.161,28.408,14.96c-3.077,20.262-5.762,42.091-6.758,61.159c28.96,5.323,58.475-3.233,87.88-4.768
						c1.543-0.081,3.137-0.135,4.577,0.421c1.214,0.469,2.299,1.485,2.602,2.717c-2.323-21.376-5.241-42.843-9.932-63.827
						c7.704-2.891,15.94-6.266,23.782-10.394C402.834,175.189,399.011,163.746,393.529,153.197z"/>
					<g>
						<defs>
							<path id="SVGID_1_" d="M393.529,153.197c-7.25,2.909-15.396,3.418-23.277,3.852c-10.734,0.592-22.979,1.474-33.713,2.067
								c-16.628-1.451-33.177-3.799-49.552-7.031c-3.987,11.8-8.503,23.433-12.993,35.338c8.808,6.126,18.374,11.161,28.408,14.96
								c-3.077,20.262-5.762,42.091-6.758,61.159c28.96,5.323,58.475-3.233,87.88-4.768c1.543-0.081,3.137-0.135,4.577,0.421
								c1.214,0.469,2.299,1.485,2.602,2.717c-2.323-21.376-5.241-42.843-9.932-63.827c7.704-2.891,15.94-6.266,23.782-10.394
								C402.834,175.189,399.011,163.746,393.529,153.197z"/>
						</defs>
						<clipPath id="SVGID_00000129898531414489081910000011429531138514909319_">
							<use xlink:href="#SVGID_1_"  style="overflow:visible;"/>
						</clipPath>
						<g style="clip-path:url(#SVGID_00000129898531414489081910000011429531138514909319_);">
							
								<path style="fill:none;stroke:#87C7D6;stroke-width:2;stroke-linecap:round;stroke-linejoin:round;stroke-miterlimit:10;" d="
								M279.348,166.945c11.117-0.943,21.946,3.84,31.39,9.781c9.446,5.939,18.13,13.158,28.181,18.002
								c13.867,6.684,30.036,8.472,45.028,4.98"/>
							
								<path style="fill:none;stroke:#87C7D6;stroke-width:2;stroke-linecap:round;stroke-linejoin:round;stroke-miterlimit:10;" d="
								M344.59,175.502c7.314,5.84,17.939,7.196,26.485,3.381c5.309-2.37,9.629-6.445,14.253-9.971
								c4.625-3.527,9.986-6.656,15.8-6.585"/>
							
								<path style="fill:none;stroke:#87C7D6;stroke-width:2;stroke-linecap:round;stroke-linejoin:round;stroke-miterlimit:10;" d="
								M298.174,213.679c6.401-4.423,15.087-3.699,22.461-1.219c7.375,2.479,14.214,6.503,21.777,8.329
								c7.573,1.83,15.587,1.352,23.13-0.597c7.543-1.95,14.652-5.332,21.373-9.271"/>
							
								<path style="fill:none;stroke:#87C7D6;stroke-width:2;stroke-linecap:round;stroke-linejoin:round;stroke-miterlimit:10;" d="
								M293.416,248.196c3.861-2.842,8.899-3.606,13.69-3.408c4.789,0.199,9.503,1.265,14.276,1.704
								c9.501,0.873,19.221-0.792,27.889-4.777c7.756-3.565,14.684-8.942,22.817-11.529c7.169-2.28,15.06-2.227,22.198,0.147"/>
							
								<path style="fill:none;stroke:#87C7D6;stroke-width:2;stroke-linecap:round;stroke-linejoin:round;stroke-miterlimit:10;" d="
								M391.457,241.018c-11.353,3.313-21.076,11.825-25.864,22.639"/>
							
								<path style="fill:none;stroke:#87C7D6;stroke-width:2;stroke-linecap:round;stroke-linejoin:round;stroke-miterlimit:10;" d="
								M273.867,180.469c13.12-2.066,31.062,6.078,24.231,23.154"/>
						</g>
					</g>
					<path style="opacity:0.15;fill:#2E2854;" d="M273.993,187.423c8.808,6.126,18.374,11.161,28.408,14.96c0,0,0,0,0,0l0,0
						c1.18-7.771,2.418-15.311,3.64-22.376c-8.973-1.893-17.842-4.268-26.572-7.078C277.662,177.736,275.83,182.555,273.993,187.423
						z"/>
					<path style="opacity:0.15;fill:#2E2854;" d="M401.501,173.216c-6.828,5.322-14.462,9.61-22.591,12.593l1.861,12.277
						c7.704-2.891,15.94-6.266,23.782-10.394C403.866,182.699,402.83,177.882,401.501,173.216z"/>
					<path style="fill:#FF98AA;" d="M354.905,176.736c8.311-3.868,14.904-11.213,17.977-19.838
						c-0.879,0.053-1.757,0.103-2.631,0.152c-10.734,0.592-22.979,1.474-33.713,2.067c-10.234-0.893-20.438-2.129-30.591-3.699
						c3.992,8.987,10.814,17.042,19.591,21.207C334.673,180.962,345.739,181.003,354.905,176.736z"/>
				</g>
			</g>
		</g>
	</g>
</g>
</svg>
