<svg width="266" height="347" viewBox="0 0 266 347" fill="none" xmlns="http://www.w3.org/2000/svg">
<path d="M120.926 14.0648C154.662 24.9422 183.684 43.1783 208.351 66.135C233.988 89.9946 260.78 115.967 265.4 148.524C269.999 180.937 247.102 209.987 233.053 240.23C218.27 272.054 212.634 310.116 180.961 330.296C148.867 350.744 105.583 346.637 65.9365 346.707C26.0286 346.777 -15.4402 348.325 -49.9389 330.703C-85.2166 312.682 -111.308 282.498 -125.535 248.9C-139.259 216.488 -133.527 181.462 -127.61 147.273C-121.71 113.181 -116.578 77.4503 -91.2988 51.0676C-65.8116 24.4673 -27.746 9.29767 11.0773 2.52858C47.9964 -3.9085 85.5919 2.6721 120.926 14.0648Z" fill="white" fill-opacity="0.2"/>
</svg>
